<?xml version="1.0" encoding="UTF-8"?>
<svg xmlns="http://www.w3.org/2000/svg" xmlns:xlink="http://www.w3.org/1999/xlink" viewBox="0 0 50 50" width="50px" height="50px">
<g id="surface957908">
<path style=" stroke:none;fill-rule:nonzero;fill:rgb(0%,0%,0%);fill-opacity:1;" d="M 11.300781 2 C 6.164062 2 2 6.164062 2 11.300781 L 2 38.800781 C 2 43.9375 6.164062 48.097656 11.300781 48.097656 L 38.800781 48.097656 C 43.9375 48.097656 48.097656 43.9375 48.097656 38.800781 L 48.097656 11.277344 C 47.988281 6.152344 43.847656 2 38.800781 2 Z M 11.300781 4 L 38.800781 4 C 42.753906 4 46.011719 7.246094 46.097656 11.324219 L 46.097656 38.800781 C 46.097656 42.863281 42.863281 46.101562 38.800781 46.101562 L 33 46.101562 L 33 29 L 37.847656 29 L 39.179688 21 L 33 21 L 33 19 C 33 18.449219 33.054688 18.40625 33.25 18.28125 C 33.449219 18.152344 34.03125 18 35 18 L 39 18 L 39 11.273438 L 38.304688 11.050781 C 38.304688 11.050781 35.128906 10 32 10 C 29.097656 10 26.957031 10.953125 25.679688 12.632812 C 24.402344 14.3125 24 16.535156 24 19 L 24 21 L 21 21 L 21 29 L 24 29 L 24 46.097656 L 11.300781 46.097656 C 7.238281 46.097656 4 42.863281 4 38.800781 L 4 11.300781 C 4 7.238281 7.238281 4 11.300781 4 Z M 32 12 C 34.167969 12 36.175781 12.539062 37 12.773438 L 37 16 L 35 16 C 33.871094 16 32.949219 16.097656 32.171875 16.59375 C 31.394531 17.09375 31 18.050781 31 19 L 31 23 L 36.820312 23 L 36.152344 27 L 31 27 L 31 46.097656 L 26 46.097656 L 26 27 L 23 27 L 23 23 L 26 23 L 26 19 C 26 16.761719 26.398438 14.988281 27.273438 13.84375 C 28.144531 12.699219 29.503906 12 32 12 Z M 32 12 "/>
</g>
</svg>
